<mxfile host="app.diagrams.net" modified="2024-03-18T09:30:42.097Z" agent="Mozilla/5.0 (Macintosh; Intel Mac OS X 10_15_7) AppleWebKit/537.36 (KHTML, like Gecko) Chrome/122.0.0.0 Safari/537.36" etag="nET_QpDUaTQYPAl_3Ayx" version="24.0.7" type="github">
  <diagram name="ページ1" id="hBqYcgdbwJQH-dgVWlWB">
    <mxGraphModel dx="2099" dy="808" grid="1" gridSize="10" guides="1" tooltips="1" connect="1" arrows="1" fold="1" page="1" pageScale="1" pageWidth="827" pageHeight="1169" math="0" shadow="0">
      <root>
        <mxCell id="0" />
        <mxCell id="1" parent="0" />
        <mxCell id="vvA__PM_Cr4niP8rY80Y-25" value="" style="rounded=0;whiteSpace=wrap;html=1;" parent="1" vertex="1">
          <mxGeometry x="-120" y="550" width="1060" height="670" as="geometry" />
        </mxCell>
        <mxCell id="vvA__PM_Cr4niP8rY80Y-1" value="" style="rounded=0;whiteSpace=wrap;html=1;" parent="1" vertex="1">
          <mxGeometry x="110" y="110" width="410" height="370" as="geometry" />
        </mxCell>
        <mxCell id="vvA__PM_Cr4niP8rY80Y-2" value="" style="rounded=0;whiteSpace=wrap;html=1;" parent="1" vertex="1">
          <mxGeometry x="165" y="220" width="300" height="100" as="geometry" />
        </mxCell>
        <mxCell id="vvA__PM_Cr4niP8rY80Y-42" style="edgeStyle=orthogonalEdgeStyle;rounded=0;orthogonalLoop=1;jettySize=auto;html=1;" parent="1" source="vvA__PM_Cr4niP8rY80Y-3" target="vvA__PM_Cr4niP8rY80Y-40" edge="1">
          <mxGeometry relative="1" as="geometry" />
        </mxCell>
        <mxCell id="vvA__PM_Cr4niP8rY80Y-3" value="" style="rounded=0;whiteSpace=wrap;html=1;" parent="1" vertex="1">
          <mxGeometry x="165" y="350" width="295" height="90" as="geometry" />
        </mxCell>
        <mxCell id="vvA__PM_Cr4niP8rY80Y-4" value="" style="shape=image;verticalLabelPosition=bottom;labelBackgroundColor=default;verticalAlign=top;aspect=fixed;imageAspect=0;image=data:image/svg+xml,PHN2ZyB4bWxucz0iaHR0cDovL3d3dy53My5vcmcvMjAwMC9zdmciIHdpZHRoPSIyNTAwLjAwMDU5NjA0NjQ0NzgiIHZpZXdCb3g9IjAgMCA1MTIuMDAwMTIyMDcwMzEyNSAzMDguODgyOTk1NjA1NDY4NzUiIHByZXNlcnZlQXNwZWN0UmF0aW89InhNaWRZTWlkIiBoZWlnaHQ9IjE1MDguOTk5OTc4NTMxMTk5Ij48cGF0aCBkPSJtMTIwLjgxIDgwLjU2MWg5Ni41Njh2Ny42NzZoLTg3LjcxNnY1Ny43NjdoODIuNDg2djcuNjc1aC04Mi40ODZ2NjMuNDIzaDg4LjcyMnY3LjY3NWgtOTcuNTc0em0xMDUuMjIgMGgxMC4yNmw0NS40NjcgNjMuNDIzIDQ2LjQ3My02My40MjQgNjMuMjExLTgwLjU2LTEwMy44NSAxNTAuNjUgNTMuNTE1IDc0LjEyN2gtMTAuNjYzbC00OC42ODYtNjcuNDYyLTQ4Ljg4OCA2Ny40NjJoLTEwLjQ2MWw1My45MTctNzQuMTI4em0xMTguODk4IDcuNjc2di03LjY3N2gxMTAuMDQ4djcuNjc2aC01MC42OTl2MTM2LjU0aC04Ljg1MnYtMTM2LjUzOXptLTM0NC45MjgtNy42NzdoMTEuMDY1bDE1Mi41OCAyMjguMzIzLTYzLjA1My04NC4xMDctOTEuMzM4LTEzMy4zMDgtLjQwMiAxMzMuMzFoLTguODUyem00NTQuMDg0IDEzNC4yMjRjLTEuODA5IDAtMy4xNjUtMS40LTMuMTY1LTMuMjEyIDAtMS44MSAxLjM1Ni0zLjIxMiAzLjE2NS0zLjIxMiAxLjgzIDAgMy4xNjUgMS40MDEgMy4xNjUgMy4yMTJzLTEuMzM1IDMuMjEyLTMuMTY1IDMuMjEyem04LjY5OC04LjQ1aDQuNzM3Yy4wNjQgMi41NjUgMS45MzcgNC4yOSA0LjY5MyA0LjI5IDMuMDc5IDAgNC44MjMtMS44NTQgNC44MjMtNS4zMjV2LTIxLjk5aDQuODIzdjIyLjAxMWMwIDYuMjUyLTMuNjE3IDkuODUzLTkuNjAzIDkuODUzLTUuNjIgMC05LjQ3My0zLjQ5My05LjQ3My04Ljg0em0yNS4zODQtLjI4aDQuNzhjLjQwOSAyLjk1MyAzLjI5NCA0LjgyOCA3LjQ1IDQuODI4IDMuODc1IDAgNi43MTctMi4wMDUgNi43MTctNC43NjQgMC0yLjM3MS0xLjgwOS0zLjc5NC01LjkyMS00Ljc2NGwtNC4wMDUtLjk3Yy01LjYyLTEuMzE2LTguMTgxLTQuMDMyLTguMTgxLTguNjAyIDAtNS41NCA0LjUyMS05LjIyNyAxMS4zMDMtOS4yMjcgNi4zMDggMCAxMC45MTYgMy42ODYgMTEuMTk2IDguOTI1aC00LjY5NGMtLjQ1Mi0yLjg2Ny0yLjk1LTQuNjU3LTYuNTY3LTQuNjU3LTMuODEgMC02LjM1IDEuODMzLTYuMzUgNC42MzUgMCAyLjIyIDEuNjM1IDMuNDkzIDUuNjgzIDQuNDQxbDMuNDIzLjg0MWM2LjM3MyAxLjQ4OCA5IDQuMDc1IDkgOC43NTMgMCA1Ljk1LTQuNjA3IDkuNjgtMTEuOTcgOS42OC02Ljg5IDAtMTEuNTItMy41NTgtMTEuODY0LTkuMTJ6Ii8+PC9zdmc+;" parent="1" vertex="1">
          <mxGeometry x="120" y="150" width="99.45" height="60" as="geometry" />
        </mxCell>
        <mxCell id="vvA__PM_Cr4niP8rY80Y-6" value="Application" style="rounded=0;whiteSpace=wrap;html=1;" parent="1" vertex="1">
          <mxGeometry x="110" y="110" width="140" height="30" as="geometry" />
        </mxCell>
        <mxCell id="vvA__PM_Cr4niP8rY80Y-12" style="edgeStyle=orthogonalEdgeStyle;rounded=0;orthogonalLoop=1;jettySize=auto;html=1;" parent="1" source="vvA__PM_Cr4niP8rY80Y-10" target="vvA__PM_Cr4niP8rY80Y-2" edge="1">
          <mxGeometry relative="1" as="geometry" />
        </mxCell>
        <mxCell id="vvA__PM_Cr4niP8rY80Y-10" value="" style="verticalLabelPosition=bottom;html=1;verticalAlign=top;align=center;strokeColor=none;fillColor=#00BEF2;shape=mxgraph.azure.user;" parent="1" vertex="1">
          <mxGeometry x="-110" y="233" width="77.5" height="73" as="geometry" />
        </mxCell>
        <mxCell id="vvA__PM_Cr4niP8rY80Y-11" value="Users" style="text;html=1;align=center;verticalAlign=middle;whiteSpace=wrap;rounded=0;" parent="1" vertex="1">
          <mxGeometry x="-110" y="320" width="83.75" height="30" as="geometry" />
        </mxCell>
        <mxCell id="vvA__PM_Cr4niP8rY80Y-13" value="Frontend" style="text;html=1;align=center;verticalAlign=middle;whiteSpace=wrap;rounded=0;fontSize=18;" parent="1" vertex="1">
          <mxGeometry x="258.75" y="255" width="112.5" height="30" as="geometry" />
        </mxCell>
        <mxCell id="vvA__PM_Cr4niP8rY80Y-14" value="B&lt;span style=&quot;background-color: initial; font-size: 18px;&quot;&gt;ack&lt;/span&gt;&lt;span style=&quot;background-color: initial; font-size: 18px;&quot;&gt;end&lt;/span&gt;" style="text;html=1;align=center;verticalAlign=middle;whiteSpace=wrap;rounded=0;fontSize=18;" parent="1" vertex="1">
          <mxGeometry x="255.5" y="380" width="115" height="30" as="geometry" />
        </mxCell>
        <mxCell id="vvA__PM_Cr4niP8rY80Y-29" value="" style="outlineConnect=0;dashed=0;verticalLabelPosition=bottom;verticalAlign=top;align=center;html=1;shape=mxgraph.aws3.cloud_2;fillColor=#F58534;gradientColor=none;" parent="1" vertex="1">
          <mxGeometry x="-120" y="550" width="65" height="70" as="geometry" />
        </mxCell>
        <mxCell id="vvA__PM_Cr4niP8rY80Y-31" value="" style="sketch=0;points=[[0,0,0],[0.25,0,0],[0.5,0,0],[0.75,0,0],[1,0,0],[0,1,0],[0.25,1,0],[0.5,1,0],[0.75,1,0],[1,1,0],[0,0.25,0],[0,0.5,0],[0,0.75,0],[1,0.25,0],[1,0.5,0],[1,0.75,0]];outlineConnect=0;fontColor=#232F3E;fillColor=#E7157B;strokeColor=#ffffff;dashed=0;verticalLabelPosition=bottom;verticalAlign=top;align=center;html=1;fontSize=12;fontStyle=0;aspect=fixed;shape=mxgraph.aws4.resourceIcon;resIcon=mxgraph.aws4.api_gateway;" parent="1" vertex="1">
          <mxGeometry x="287.25" y="700" width="50" height="50" as="geometry" />
        </mxCell>
        <mxCell id="vvA__PM_Cr4niP8rY80Y-32" value="" style="outlineConnect=0;dashed=0;verticalLabelPosition=bottom;verticalAlign=top;align=center;html=1;shape=mxgraph.aws3.dynamo_db;fillColor=#2E73B8;gradientColor=none;" parent="1" vertex="1">
          <mxGeometry x="291.75" y="1074.5" width="42" height="51" as="geometry" />
        </mxCell>
        <mxCell id="vvA__PM_Cr4niP8rY80Y-36" value="API Gateway" style="text;html=1;align=center;verticalAlign=middle;whiteSpace=wrap;rounded=0;" parent="1" vertex="1">
          <mxGeometry x="269.5" y="750" width="87" height="30" as="geometry" />
        </mxCell>
        <mxCell id="vvA__PM_Cr4niP8rY80Y-39" value="会話ログDB&lt;div&gt;&amp;nbsp;Master&lt;/div&gt;" style="text;html=1;align=center;verticalAlign=middle;whiteSpace=wrap;rounded=0;" parent="1" vertex="1">
          <mxGeometry x="269.5" y="1140" width="87" height="30" as="geometry" />
        </mxCell>
        <mxCell id="vvA__PM_Cr4niP8rY80Y-43" style="edgeStyle=orthogonalEdgeStyle;rounded=0;orthogonalLoop=1;jettySize=auto;html=1;" parent="1" source="vvA__PM_Cr4niP8rY80Y-40" target="vvA__PM_Cr4niP8rY80Y-31" edge="1">
          <mxGeometry relative="1" as="geometry" />
        </mxCell>
        <mxCell id="vvA__PM_Cr4niP8rY80Y-40" value="" style="sketch=0;points=[[0,0,0],[0.25,0,0],[0.5,0,0],[0.75,0,0],[1,0,0],[0,1,0],[0.25,1,0],[0.5,1,0],[0.75,1,0],[1,1,0],[0,0.25,0],[0,0.5,0],[0,0.75,0],[1,0.25,0],[1,0.5,0],[1,0.75,0]];outlineConnect=0;fontColor=#232F3E;fillColor=#8C4FFF;strokeColor=#ffffff;dashed=0;verticalLabelPosition=bottom;verticalAlign=top;align=center;html=1;fontSize=12;fontStyle=0;aspect=fixed;shape=mxgraph.aws4.resourceIcon;resIcon=mxgraph.aws4.cloudfront;" parent="1" vertex="1">
          <mxGeometry x="288" y="584" width="50" height="50" as="geometry" />
        </mxCell>
        <mxCell id="vvA__PM_Cr4niP8rY80Y-44" value="CloudFront" style="text;html=1;align=center;verticalAlign=middle;whiteSpace=wrap;rounded=0;" parent="1" vertex="1">
          <mxGeometry x="268.75" y="634" width="87" height="30" as="geometry" />
        </mxCell>
        <mxCell id="vvA__PM_Cr4niP8rY80Y-51" value="" style="outlineConnect=0;dashed=0;verticalLabelPosition=bottom;verticalAlign=top;align=center;html=1;shape=mxgraph.aws3.mysql_db_instance;fillColor=#2E73B8;gradientColor=none;" parent="1" vertex="1">
          <mxGeometry x="315" y="1100" width="30" height="34.5" as="geometry" />
        </mxCell>
        <mxCell id="vvA__PM_Cr4niP8rY80Y-52" value="" style="outlineConnect=0;dashed=0;verticalLabelPosition=bottom;verticalAlign=top;align=center;html=1;shape=mxgraph.aws3.dynamo_db;fillColor=#2E73B8;gradientColor=none;" parent="1" vertex="1">
          <mxGeometry x="495.25" y="1070" width="42" height="51" as="geometry" />
        </mxCell>
        <mxCell id="vvA__PM_Cr4niP8rY80Y-53" value="" style="outlineConnect=0;dashed=0;verticalLabelPosition=bottom;verticalAlign=top;align=center;html=1;shape=mxgraph.aws3.mysql_db_instance_2;fillColor=#2E73B8;gradientColor=none;" parent="1" vertex="1">
          <mxGeometry x="521" y="1095.5" width="30" height="34.5" as="geometry" />
        </mxCell>
        <mxCell id="vvA__PM_Cr4niP8rY80Y-54" value="会話ログDB" style="text;html=1;align=center;verticalAlign=middle;whiteSpace=wrap;rounded=0;" parent="1" vertex="1">
          <mxGeometry x="472.75" y="1130" width="87" height="30" as="geometry" />
        </mxCell>
        <mxCell id="vvA__PM_Cr4niP8rY80Y-55" value="" style="endArrow=classic;startArrow=classic;html=1;rounded=0;entryX=0;entryY=0.5;entryDx=0;entryDy=0;entryPerimeter=0;" parent="1" target="vvA__PM_Cr4niP8rY80Y-52" edge="1">
          <mxGeometry width="50" height="50" relative="1" as="geometry">
            <mxPoint x="350" y="1095.5" as="sourcePoint" />
            <mxPoint x="550" y="984.5" as="targetPoint" />
          </mxGeometry>
        </mxCell>
        <mxCell id="vvA__PM_Cr4niP8rY80Y-56" value="" style="outlineConnect=0;dashed=0;verticalLabelPosition=bottom;verticalAlign=top;align=center;html=1;shape=mxgraph.aws3.lambda_function;fillColor=#F58534;gradientColor=none;" parent="1" vertex="1">
          <mxGeometry x="455.25" y="830" width="48.5" height="50" as="geometry" />
        </mxCell>
        <mxCell id="vvA__PM_Cr4niP8rY80Y-57" value="&lt;div&gt;&lt;span style=&quot;background-color: initial;&quot;&gt;会話開始用&lt;/span&gt;&lt;/div&gt;&lt;div&gt;&lt;span style=&quot;background-color: initial;&quot;&gt;Lambda&lt;/span&gt;&lt;br&gt;&lt;/div&gt;" style="text;html=1;align=center;verticalAlign=middle;whiteSpace=wrap;rounded=0;" parent="1" vertex="1">
          <mxGeometry x="434" y="880" width="87" height="30" as="geometry" />
        </mxCell>
        <mxCell id="vvA__PM_Cr4niP8rY80Y-59" value="" style="endArrow=classic;html=1;rounded=0;entryX=0.5;entryY=0;entryDx=0;entryDy=0;entryPerimeter=0;" parent="1" target="vvA__PM_Cr4niP8rY80Y-56" edge="1">
          <mxGeometry width="50" height="50" relative="1" as="geometry">
            <mxPoint x="313" y="750" as="sourcePoint" />
            <mxPoint x="220" y="720" as="targetPoint" />
          </mxGeometry>
        </mxCell>
        <mxCell id="vvA__PM_Cr4niP8rY80Y-61" value="" style="endArrow=classic;html=1;rounded=0;exitX=0.5;exitY=1;exitDx=0;exitDy=0;entryX=0.5;entryY=0;entryDx=0;entryDy=0;entryPerimeter=0;" parent="1" source="vvA__PM_Cr4niP8rY80Y-57" target="vvA__PM_Cr4niP8rY80Y-32" edge="1">
          <mxGeometry width="50" height="50" relative="1" as="geometry">
            <mxPoint x="80" y="970" as="sourcePoint" />
            <mxPoint x="130" y="920" as="targetPoint" />
          </mxGeometry>
        </mxCell>
        <mxCell id="vvA__PM_Cr4niP8rY80Y-62" value="" style="fontColor=#0066CC;verticalAlign=top;verticalLabelPosition=bottom;labelPosition=center;align=center;html=1;outlineConnect=0;fillColor=#CCCCCC;strokeColor=#6881B3;gradientColor=none;gradientDirection=north;strokeWidth=2;shape=mxgraph.networks.pc;" parent="1" vertex="1">
          <mxGeometry x="-60" y="268" width="70" height="60" as="geometry" />
        </mxCell>
        <mxCell id="vvA__PM_Cr4niP8rY80Y-65" value="" style="sketch=0;points=[[0,0,0],[0.25,0,0],[0.5,0,0],[0.75,0,0],[1,0,0],[0,1,0],[0.25,1,0],[0.5,1,0],[0.75,1,0],[1,1,0],[0,0.25,0],[0,0.5,0],[0,0.75,0],[1,0.25,0],[1,0.5,0],[1,0.75,0]];outlineConnect=0;fontColor=#232F3E;fillColor=#DD344C;strokeColor=#ffffff;dashed=0;verticalLabelPosition=bottom;verticalAlign=top;align=center;html=1;fontSize=12;fontStyle=0;aspect=fixed;shape=mxgraph.aws4.resourceIcon;resIcon=mxgraph.aws4.waf;" parent="1" vertex="1">
          <mxGeometry x="140" y="584.9999999999999" width="50" height="50" as="geometry" />
        </mxCell>
        <mxCell id="vvA__PM_Cr4niP8rY80Y-66" value="" style="outlineConnect=0;dashed=0;verticalLabelPosition=bottom;verticalAlign=top;align=center;html=1;shape=mxgraph.aws3.iam;fillColor=#759C3E;gradientColor=none;" parent="1" vertex="1">
          <mxGeometry x="854.25" y="847.5" width="32" height="50" as="geometry" />
        </mxCell>
        <mxCell id="vvA__PM_Cr4niP8rY80Y-69" value="AWS WAF" style="text;html=1;align=center;verticalAlign=middle;whiteSpace=wrap;rounded=0;" parent="1" vertex="1">
          <mxGeometry x="135" y="634" width="60" height="30" as="geometry" />
        </mxCell>
        <mxCell id="vvA__PM_Cr4niP8rY80Y-70" value="IAM" style="text;html=1;align=center;verticalAlign=middle;whiteSpace=wrap;rounded=0;" parent="1" vertex="1">
          <mxGeometry x="840.25" y="900" width="60" height="32.5" as="geometry" />
        </mxCell>
        <mxCell id="vvA__PM_Cr4niP8rY80Y-71" value="" style="rounded=0;whiteSpace=wrap;html=1;" parent="1" vertex="1">
          <mxGeometry x="620" y="574" width="304.75" height="216" as="geometry" />
        </mxCell>
        <mxCell id="vvA__PM_Cr4niP8rY80Y-73" value="" style="rounded=0;whiteSpace=wrap;html=1;" parent="1" vertex="1">
          <mxGeometry x="620" y="574" width="124.75" height="30" as="geometry" />
        </mxCell>
        <mxCell id="vvA__PM_Cr4niP8rY80Y-72" value="サードパーティ" style="text;html=1;align=center;verticalAlign=middle;whiteSpace=wrap;rounded=0;" parent="1" vertex="1">
          <mxGeometry x="620" y="574" width="130" height="30" as="geometry" />
        </mxCell>
        <mxCell id="vvA__PM_Cr4niP8rY80Y-16" value="" style="shape=image;verticalLabelPosition=bottom;labelBackgroundColor=default;verticalAlign=top;aspect=fixed;imageAspect=0;image=data:image/svg+xml,PHN2ZyB4bWxuczp4bGluaz0iaHR0cDovL3d3dy53My5vcmcvMTk5OS94bGluayIgeG1sbnM9Imh0dHA6Ly93d3cudzMub3JnLzIwMDAvc3ZnIiB2aWV3Qm94PSIwIDAgMjQwNiAyNDA2Ij4mI3hhOwk8cGF0aCBmaWxsPSIjNzRhYTljIiBkPSJNMSA1NzguNEMxIDI1OS41IDI1OS41IDEgNTc4LjQgMWgxMjQ5LjFjMzE5IDAgNTc3LjUgMjU4LjUgNTc3LjUgNTc3LjRWMjQwNkg1NzguNEMyNTkuNSAyNDA2IDEgMjE0Ny41IDEgMTgyOC42VjU3OC40eiIvPiYjeGE7CTxwYXRoIGZpbGw9IiNmZmYiIGQ9Ik0xMTA3LjMgMjk5LjFjLTE5Ny45OTkgMC0zNzMuOSAxMjcuMy00MzUuMiAzMTUuM0w2NTAgNzQzLjV2NDI3LjljMCAyMS40IDExIDQwLjQgMjkuNCA1MS40bDM0NC41IDE5OC41MTVWODMzLjNoLjF2LTI3LjlMMTM3Mi43IDYwNGMzMy43MTUtMTkuNTIgNzAuNDQtMzIuODU3IDEwOC40Ny0zOS44MjhMMTQ0Ny42IDQ1MC4zQzEzNjEgMzUzLjUgMTIzNy4xIDI5OC41IDExMDcuMyAyOTkuMXptMCAxMTcuNS0uNi42Yzc5LjY5OSAwIDE1Ni4zIDI3LjUgMjE3LjYgNzguNC0yLjUgMS4yLTcuNCA0LjMtMTEgNi4xTDk1Mi44IDcwOS4zYy0xOC40IDEwLjQtMjkuNCAzMC0yOS40IDUxLjRWMTI0OGwtMTU1LjEtODkuNFY3NTUuOGMtLjEtMTg3LjA5OSAxNTEuNjAxLTMzOC45IDMzOS0zMzkuMnoiIGlkPSJhIi8+JiN4YTsJPHVzZSB0cmFuc2Zvcm09InJvdGF0ZSg2MCAxMjAzIDEyMDMpIiB4bGluazpocmVmPSIjYSIvPiYjeGE7ICAJPHVzZSB0cmFuc2Zvcm09InJvdGF0ZSgxMjAgMTIwMyAxMjAzKSIgeGxpbms6aHJlZj0iI2EiLz4mI3hhOwk8dXNlIHRyYW5zZm9ybT0icm90YXRlKDE4MCAxMjAzIDEyMDMpIiB4bGluazpocmVmPSIjYSIvPiYjeGE7CTx1c2UgdHJhbnNmb3JtPSJyb3RhdGUoMjQwIDEyMDMgMTIwMykiIHhsaW5rOmhyZWY9IiNhIi8+JiN4YTsJPHVzZSB0cmFuc2Zvcm09InJvdGF0ZSgzMDAgMTIwMyAxMjAzKSIgeGxpbms6aHJlZj0iI2EiLz4mI3hhOyYjeGE7PC9zdmc+;" parent="1" vertex="1">
          <mxGeometry x="730.25" y="635" width="60" height="60" as="geometry" />
        </mxCell>
        <mxCell id="vvA__PM_Cr4niP8rY80Y-22" value="" style="shape=image;verticalLabelPosition=bottom;labelBackgroundColor=default;verticalAlign=top;aspect=fixed;imageAspect=0;image=data:image/jpeg,/9j/4AAQSkZJRgABAQAAAQABAAD/2wCEAAkGBxMHBhUTExAWFhMVFRgXGBgVGBYTGBkWGhUXGRsYHx0aHSkgGxolHhcXIjYtMSkrLi4uFyA0OTQtOCgtLisBCgoKDg0OGxAQGy0lHyYtLS0tNi0tLS0vLS8tLS0tLS0tLS0tLS0tLS0tLS0tLS0tLS0tLS0tLS0tLS0tLS0tLf/AABEIAKoBKAMBIgACEQEDEQH/xAAbAAEAAwEBAQEAAAAAAAAAAAAAAwQFBgECB//EAEAQAAEDAwIDBAYHBwMFAQAAAAEAAgMEBRESIQYxQRNRYXEUIjKBkbEVI0JSYqHBFlNygtHh8DNDsjWSoqPCB//EABoBAQADAQEBAAAAAAAAAAAAAAABAgMEBgX/xAAyEQACAQIDBgQGAQUBAAAAAAAAAQIRIRIxQQNRYXGBkSKx0fATMqHB4fFCM1JigsIj/9oADAMBAAIRAxEAPwC6iIvknowiIgCIiAIiIAiIgCIiAIiIAiIgCIiAIiIAiIgCIiAIiIAiIgCIiAIiIAiIgCIiAIiIAiIgCIiAIiIAiIgCIiAIiIAiIgCIiAv2a1m5zEZw1oy48+fIDx5qS82n6NDSH6muyOWCCEs12NrLvU1NdjPQ7Zx81c4sqS+WNoHqaQ8HqS7+mPzWiUcHE529otrTQwERFmdAREQBERAEREAREQBERAEREAREQBERAEREAREQBERAEREAREQBERAEREAREQBFnXa8MtxDdJklf7ETN3HxPc3xVJtvqboc1EvZM/dQHBx+KTmfcrqNquy95Gb2l6K78ubyNGvu8Fv2klaHdGg6nnyaNyrnEF2nnsFHNBRPfqa5rg9wic3TjTkHv3VO32eC3f6cTWnq72nHzcd10oHbcLHvjl/Jw/qVaLiqpKttTPaRm3Ft0vpx4s4ZtxuGMmgZjuEzc/0UkPFEccuiojfTvPLtR6p8nDb5LeUVRTsqoi17A5p5hwBCrjjquxfBNZSfWj8j6ikbMwFrg4HkQQR8Qvpc/wDsz6BLrpJnQn7hy+I+YO4+KuWu6mpmMUrOznaMlv2XD77D1b8kcLVjclTdaSVPLuai0rXZZLlGXNIaBtl2dz3DCzgMldfS1rOHrayOUF0jsuLW49UE5AOVOzim6yyK7acopYM2crVU7qWcscMOH+Z8lCrNyrDX1rpCMZ5DuA2CrKjpWxrGtFXMIiKCQiIgCIiAIiIAiIgCIiAIiIAiIgCIiAIiIAiIgCIiALFvlxkFQ2np8du8ZLjuI2dXnx7gu0stpZV0rpJCcA4ABxvgdceKw5OHPoC5SuLy985Emp2Mhm4azboMFaRhhjjfvmYS2mKfw4u+v4M+z2Vlsy7JfK/25H7uJ/QeChqr6O2dFTxunlbsdOzGn8T+Q8uahvlXJVVXokB0vc3VJJ+7jO234j0WpbLdHa6QRxtw0fEnvPeUf9082FX5YWS8+HqZAttbWEGWsEQ6sgb/APTt10HDnDjDZayF8s0vaRtd9Y8n2CTtjGOYWbX3plLUdk1rpZjv2cYyQO9x5NHmtngqqqZr1pfBHGyRj27yGR2cZGwAHTvV4OVVWy6Iy2sdnhebfV8eRzruFYQ31JJ4/wCCZ4+eVHJaquibmCsL8fYqAHA/zAAgq7IK2DIxTvIOMDtGcue5yqwv5pX4qqd0IJwHg9pH73Aer71Cc99e377Gj+GtGu6+qsSW7iFlTU9lI10M/wByTbP8J5OCt3Oh9LY1zTpljOpjsZwcYIPe0jYhfN1tcV5o9Lxnq17ebT0c0qxwHSzVM0sdWDopsEzcmyMOdI/i23URWK8MyZSwKk7rR+vHdvNfhiQR2v0qeMtkBLWxH94DjV4t2yD1G6p1NQ6qnL3HLnHJP+dFm8a3KRlxbVsB7KMdm+Mcuxz7YH3hzV1jxIwEHIIBB7wdwVG0pbDl9xsq1eL5vtp+eJ6iIszcIiIAiIgCIiAIiIAiIgCIiAIiIAiIgCIiAIiIAiIgCIiAqw8TS0PEcdNEWlukyyhwJxjGnGCMHP5YXRP4hbLTu9MaDG0F2sDDowNyR3gf5lcLaINXF9ZJ3CJg97AT+im4veXWtsLTh1RIyLbuccu/IFbVdYxWRyYYuMto1er52svqa9v4f+j6Z9S2UTsqXmQStH2D7DSOmBj4rNvVbJ2wp4MdtIMlx3EcfLWfHoB3rbp7weHKN0jd442EuZzDmtHLHfsp7NQQ36g9Kpm9nNOBJJA45Ps4Gg9W4Gw8eimik3NdhVwS2b7+fK+v4Mi1W1lrptLBkk5c47ue7q4nqVqW+rbQ3GN7nBoD27kgczjr5rEu1wfDV+jws1VGMnVkMiH3n9fIcyoKThyMSCScmebnqk3aDz9VvJoVKXxSZq3bBBcOCNbiK801Be5WPqGNcHk4J3GrDh+RXzG+OvpcgtkjcMbEOaR3LX4no433ASdmz6yNrvZb3Y/Rcy7h2M1GqAuhld1i2Dj0yz2SklGrzRXZueBN0fvjYWKxT0d2ZFT/AFlNId2uO8A3OoHqzw57han/AOgSGa0Nio3kCncJQQdpXtBznHMbnC0X1n0BA2jkc01c0Zc97QQ0sBwWjudvy8yuZsWaV8lMf9p2WeMLt2fDdvuWkm489eRjGKm/8dODLFtq2Xq0teB6sjcEc8Hk5vuOQqfCspbbzC726d5iPi0ewfe3HwVS1D6I4llp+Ucw7aLuDvttHz9y0JKV0PEsckbHOEzTFIGgu3aNTHHHk4Z8QqUzS1uvffsbKTtJ5qz9879TVRfT2ljsEEEdDsV8rI6AiIgCIiAIiIAiIgCIiAIiIAiIgCIiAIiIAiIgCIiAIiIDJtX/AFmr/jiP/pb/AEUF0Ha8U0jTya2aT3hoA+aloTo4oqW/ejhf7/Wb+gUN3+r4qo3dCJme8tBC1/l0+xzv5P8Ab/ol4qkL6FsDT61Q9sXk07vP/aCr1bV/RFBrYDlgAjA2Jfs1jQemSQFm3AdvxfTN6RxSye84YFbuhDqynaeRlJ97Y3uH54PuUUVIrr77EutZPovp6nR2uZldRtbWECpLQDUMaG6ndzwObRyH6KK4W2S3vw8AtPsubu1w8Cq0ULpT6rSfIE/JdDZ6epjj0Og1wO5tkIAHi3JyCpvtM1ff6kNLYrwu25/Z+pRuh7W007+5rmH3Yx8ipbaG2mk7d4BkcMRNP/M/5810Js0XYCPSdDX6gCcny8lg3GWmmqy6SZ7zyDY26QAOmXKzg431Mo7RTWC9PscdxUHTUvbgkywv7YHqce2Pe0le1ELqiqgqYY3SfZdoaXExSAb7dztB8srpzcoYm4jpGecpMv5HZYtu4nqZpJKaR4Y6M+qImiJroXZ0EaQOQ2PkoVKZ1p9y8sWKypXfvXKuh9X/AIOqa+BkjezhlheHsdM4MH4gcAnBHh0XTcK1NN6GdNVE97+boydALebQ52M7/FcFSVcluuPYTOe9jyewleS8nr2TnHfUN8Z5gKpM/wDZq7FxB9Fndkkcopj1Pc1yumo2Syy4mcouSrJ0TtKmj06fg7ziO5Q19WBG9jpIxpl0EHSdsA468/ishY15oHiYVNPjt2jcfZlYPsHx7irlpubLrSh7Njyc07OY4c2kdCsp+LxI6Nl4F8N9OKLqIizNgiIgCIiAIiIAiIgCIiAIiIAiIgCIiAIiIAiIgLtrtrrlMQCAAMknp/dTV1jlpZAA0vB5FgJ+I6KXhu6Mt8rhIDpfjcb4Iz06jdXr3xAHRhsD3DfJdjT05DO61Shhq8zmlLa/Eolb6HLjhWqPErJhEGxuhMb3Oc1uCHam7Zz1PRS8RcPwRQxTVFfHC2CVshLQZSemnA33zhYvGE73UTJjI4mGaN+SSfV1Brs+GCVNxDT+l2GZo3zG4jzAyPzAVk4rC+nvuVcJtTjXjl71RqytttNxNGSZ5ZXQPDcYZHpDgT3HO4XnEXEMNsZFJHQxECZjS6Ql5aHZaXDx3XJXKfXZKSsHOIxud36HYa8f53LbvdELpZ5I/vN9U/iG7T8cKcVHHdl5kfDxKSu3mr71U6OW/Tu5PDR+BoCnoaWStj7WeVzYW9XOO57gFR4cpQLJFUVYLS5gPZnZxdjfI6b/AN15cbi+vk32aPZaOQ/us3WPzF1hkv8AzVOPob/7WgVWOy+rzzydWOpx39Vg3ah9Cq8A5Y4amO56mnkVSWzbj9KUBpyfrGZdCf8AkzyKnE5qj6E4I7LxRy19TGWRxDD2EQqmbSQAnuD4/tMPnzHiAtuaF0DsOaWnucCPmudu1OKziKGOTJiMUjgzJDS9rmbkD2tiq7P5i+1+XnlzLd9Y2osUhcdI0awTtpcBlp8wcL6llZNYc1OA10QMgdtuWgn35yqVYwXDidsMhJjZEJWs+y5+stJd349XASOnbe7vI6X1o6d4jZGfZ7QNBdIR1PrYHdhWoqLv30XMq2220uHPW/DdvJ+ES88PRa85AIbnY6AToJ/lwoWNZ+1uYcauzd6Rp5cxo1dNec+OMry5Ofc7waVshjjZGHyOZgPdqOA0HoMArUt9BHbqYMjbgdepJ7yeZKNpVe/TmIpukVlHXitxbXiIsjcIiIAiIgCIiAIiIAiIgCIiAIiIAiIgCIiAIiIAiIgK10pxV22SM8nMcPi0qtw9P6dw/C4/ajAPmBpPyWmsThIdla3R/u5pWeXrkj8iFavh6lH/AFFyPOCrZ9M2N1GTjS6aFx+6ATv54cPyXcWy3RWG0Nk9aV0YDBrxs4bZOPcuJ4PrHW7iSs0HdsrX46EPZvnzwtyPiV13jni7IMEc5BwSdWGtcDy25+K3bilJ65nIoybitLrt+jMo7hLV3yqZISdL2PbnkGyM9kDoAWn4rQWNbH6+J6vwbAP/ABkP6rZWO0zry8jq2Vo04vzYWpw3Uspbll5wNJAPQHI5922Vloqp0dS044ouO86riutiloWsa5r36s5aQ7Aweo71+f3luLhSO7py33Ohk/oFXluc9yq3R0gaGMOl80mS0O6ta0e0QrNvswgnEkkr5pgNnPOA3I30tGzfmtZO+KXY59nFYcMbrf7z6dyG/j0e50sw5iXsneLJGnY+8BeWX6jiCrjPVzJR5OZgn4hR3mobcrrBTRkOLJRLLjfQ1gOAe4kkBSVI7LjKJw/3KeRp/lc1wT+NOD86lqrHiW9d6fo+Ko/RnFMch9ipb2Rz0e3dnxGQt9Y/FdEayzuLf9SIiVh/Ezf5ZWlQ1ArKJkg5PY13xaD+qpK8U+hpC0nHr6kyIioaBERAEREAREQBERAEREAREQBERAEREAREQBERAEREAWJZSY75WR421xyD+eMA/wDBbaKU7NFZRq093pQxaCnMXFVS7ScPjhOehPrN/RT2mmfT3CpLm4a+UOYe/wCraDt5hai8VnNvskQoU7t9zPt1G6C41Ejv9x7S3+FsbR88rQRFVurqWjFRVEF47ZpxzwvUUEmRwlSOorBG17S1/rOcDzy5xO6r3OmqbvcHRBzoaZoGp7fbkJGcNPRvj81vor43icjP4SwKFbL6mXFBTcNW1zgAxg9px3c4+J5kqraxJdboKp8fZxtY5kTXe2Q4gl7u7YclukZX0mLPeHs7paLRe9CleHujtUhYwvdoIa0bkkjA+a9s9MaO0xRnmyNjT5hoz+atoq1tQth8WIIiKCwREQBERAEREAREQBERAEREAREQBERAEREAREQBERAEREAREQBERAEREAREQBERAEREAREQBERAEREAREQBERAEREAREQBERAEREAREQBERAEREAREQBERAEREAREQBERAEREAREQBERAEREAREQBERAEREAREQH//Z;" parent="1" vertex="1">
          <mxGeometry x="790.25" y="635.0000000000001" width="96" height="55.14" as="geometry" />
        </mxCell>
        <mxCell id="vvA__PM_Cr4niP8rY80Y-76" value="" style="outlineConnect=0;dashed=0;verticalLabelPosition=bottom;verticalAlign=top;align=center;html=1;shape=mxgraph.aws3.lambda_function;fillColor=#F58534;gradientColor=none;" parent="1" vertex="1">
          <mxGeometry x="289" y="830" width="48.5" height="50" as="geometry" />
        </mxCell>
        <mxCell id="vvA__PM_Cr4niP8rY80Y-77" value="Poe用&lt;br&gt;Lambda" style="text;html=1;align=center;verticalAlign=middle;whiteSpace=wrap;rounded=0;" parent="1" vertex="1">
          <mxGeometry x="269" y="880" width="87" height="30" as="geometry" />
        </mxCell>
        <mxCell id="vvA__PM_Cr4niP8rY80Y-79" value="" style="endArrow=classic;html=1;rounded=0;exitX=0.5;exitY=0;exitDx=0;exitDy=0;entryX=0.5;entryY=0;entryDx=0;entryDy=0;entryPerimeter=0;" parent="1" source="vvA__PM_Cr4niP8rY80Y-36" target="vvA__PM_Cr4niP8rY80Y-76" edge="1">
          <mxGeometry width="50" height="50" relative="1" as="geometry">
            <mxPoint x="410" y="890" as="sourcePoint" />
            <mxPoint x="460" y="840" as="targetPoint" />
          </mxGeometry>
        </mxCell>
        <mxCell id="vvA__PM_Cr4niP8rY80Y-83" value="" style="outlineConnect=0;dashed=0;verticalLabelPosition=bottom;verticalAlign=top;align=center;html=1;shape=mxgraph.aws3.lambda_function;fillColor=#F58534;gradientColor=none;" parent="1" vertex="1">
          <mxGeometry x="289" y="950" width="48.5" height="50" as="geometry" />
        </mxCell>
        <mxCell id="vvA__PM_Cr4niP8rY80Y-84" value="&lt;div&gt;ログ記録用&lt;/div&gt;&lt;div&gt;&lt;span style=&quot;background-color: initial;&quot;&gt;Lambda&lt;/span&gt;&lt;br&gt;&lt;/div&gt;" style="text;html=1;align=center;verticalAlign=middle;whiteSpace=wrap;rounded=0;" parent="1" vertex="1">
          <mxGeometry x="269.75" y="1000" width="87" height="30" as="geometry" />
        </mxCell>
        <mxCell id="vvA__PM_Cr4niP8rY80Y-85" value="" style="endArrow=classic;html=1;rounded=0;exitX=0.5;exitY=1;exitDx=0;exitDy=0;exitPerimeter=0;entryX=0.5;entryY=0;entryDx=0;entryDy=0;entryPerimeter=0;" parent="1" source="vvA__PM_Cr4niP8rY80Y-83" target="vvA__PM_Cr4niP8rY80Y-32" edge="1">
          <mxGeometry width="50" height="50" relative="1" as="geometry">
            <mxPoint x="220" y="1000" as="sourcePoint" />
            <mxPoint x="270" y="950" as="targetPoint" />
          </mxGeometry>
        </mxCell>
        <mxCell id="vvA__PM_Cr4niP8rY80Y-86" value="" style="endArrow=classic;html=1;rounded=0;exitX=0.5;exitY=1;exitDx=0;exitDy=0;entryX=0.5;entryY=0;entryDx=0;entryDy=0;entryPerimeter=0;" parent="1" source="vvA__PM_Cr4niP8rY80Y-77" target="vvA__PM_Cr4niP8rY80Y-83" edge="1">
          <mxGeometry width="50" height="50" relative="1" as="geometry">
            <mxPoint x="350" y="1090" as="sourcePoint" />
            <mxPoint x="400" y="1040" as="targetPoint" />
          </mxGeometry>
        </mxCell>
        <mxCell id="vvA__PM_Cr4niP8rY80Y-93" value="" style="shape=image;verticalLabelPosition=bottom;labelBackgroundColor=default;verticalAlign=top;aspect=fixed;imageAspect=0;image=data:image/svg+xml,PHN2ZyB4bWxucz0iaHR0cDovL3d3dy53My5vcmcvMjAwMC9zdmciIHZpZXdCb3g9IjAgMCAyNTAgNjAuMTUiPiYjeGE7ICA8cGF0aCBkPSJNNzcuMzUgNy44NlY0LjYzaC0zdjMuMjNoLTEuNDZWLjExaDEuNTF2My4yNWgzVi4xMWgxLjUxdjcuNzV6bTcgMGgtMS4ybC0uMTEtLjM4YTMuMjggMy4yOCAwIDAgMS0xLjcuNTJjLTEuMDYgMC0xLjUyLS43LTEuNTItMS42NiAwLTEuMTQuNTEtMS41NyAxLjctMS41N2gxLjR2LS42MmMwLS42Mi0uMTgtLjg0LTEuMTEtLjg0YTguNDYgOC40NiAwIDAgMC0xLjYxLjE3TDgwIDIuNDJhNy44OSA3Ljg5IDAgMCAxIDItLjI2YzEuODMgMCAyLjM3LjYyIDIuMzcgMnptLTEuNDMtMi4xMWgtMS4wOGMtLjQ4IDAtLjYxLjEzLS42MS41NXMuMTMuNTYuNTkuNTZhMi4zNyAyLjM3IDAgMCAwIDEuMS0uMjl6TTg3LjQzIDhhNy4xMiA3LjEyIDAgMCAxLTItLjMybC4yLTEuMDdhNi43NyA2Ljc3IDAgMCAwIDEuNzMuMjRjLjY1IDAgLjc0LS4xNC43NC0uNTZzLS4wNy0uNTItMS0uNzNjLTEuNDItLjMzLTEuNTktLjY4LTEuNTktMS43NnMuNDktMS42NSAyLjE2LTEuNjVhOCA4IDAgMCAxIDEuNzUuMmwtLjE0IDEuMTFhMTAuNjYgMTAuNjYgMCAwIDAtMS42LS4xNmMtLjYzIDAtLjc0LjE0LS43NC40OHMwIC40OC44Mi42OGMxLjYzLjQxIDEuNzguNjIgMS43OCAxLjc3Uzg5LjE5IDggODcuNDMgOHptNi42OC0uMTFWNGMwLS4zLS4xMy0uNDUtLjQ3LS40NWE0LjE0IDQuMTQgMCAwIDAtMS41Mi40NXYzLjg2aC0xLjQ2VjBsMS40Ni4yMnYyLjQ3YTUuMzEgNS4zMSAwIDAgMSAyLjEzLS41NGMxIDAgMS4zMi42NSAxLjMyIDEuNjV2NC4wNnptMi42OC02LjM4Vi4xMWgxLjQ2djEuMzd6bTAgNi4zOFYyLjI3aDEuNDZ2NS41OXptMi42Mi01LjU0YzAtMS40Ljg1LTIuMjIgMi44My0yLjIyYTkuMzcgOS4zNyAwIDAgMSAyLjE2LjI1bC0uMTcgMS4yNWExMi4yMSAxMi4yMSAwIDAgMC0xLjk1LS4yYy0xIDAtMS4zNy4zNC0xLjM3IDEuMTZWNS41YzAgLjgxLjMzIDEuMTYgMS4zNyAxLjE2YTEyLjIxIDEyLjIxIDAgMCAwIDEuOTUtLjJsLjE3IDEuMjVhOS4zNyA5LjM3IDAgMCAxLTIuMTYuMjVjLTIgMC0yLjgzLS44MS0yLjgzLTIuMjJ6TTEwNy42MyA4Yy0yIDAtMi41My0xLjA2LTIuNTMtMi4yVjQuMzZjMC0xLjE1LjU0LTIuMiAyLjUzLTIuMnMyLjUzIDEuMDYgMi41MyAyLjJ2MS40MWMuMDEgMS4xNS0uNTMgMi4yMy0yLjUzIDIuMjN6bTAtNC42M2MtLjc4IDAtMS4wOC4zMy0xLjA4IDF2MS41YzAgLjYzLjMgMSAxLjA4IDFzMS4wOC0uMzMgMS4wOC0xVjQuMzFjMC0uNjMtLjMtLjk2LTEuMDgtLjk2em02LjY0LjA5YTExLjU3IDExLjU3IDAgMCAwLTEuNTQuODF2My42aC0xLjQ2di01LjZoMS4yM2wuMS42MmE2LjYzIDYuNjMgMCAwIDEgMS41My0uNzN6TTEyMC4xIDZhMS43MyAxLjczIDAgMCAxLTEuOTIgMiA4LjM2IDguMzYgMCAwIDEtMS41NS0uMTZ2Mi4yNmwtMS40Ni4yMnYtOGgxLjE2bC4xNC40N2EzLjE1IDMuMTUgMCAwIDEgMS44NC0uNTljMS4xNyAwIDEuNzkuNjcgMS43OSAxLjk0em0tMy40OC42M2E2LjcyIDYuNzIgMCAwIDAgMS4yOS4xNWMuNTMgMCAuNzMtLjI0LjczLS43NXYtMmMwLS40Ni0uMTgtLjcxLS43Mi0uNzFhMi4xMSAyLjExIDAgMCAwLTEuMy41MXpNODEuNzggMTkuNTRoLTguODl2LTUuMzFIOTYuN3Y1LjMxaC04Ljl2MjYuNTNoLTZ6IiBmaWxsPSIjMDAwIiBjbGFzcz0idGV4dCIvPiYjeGE7ICA8cGF0aCBkPSJNMTAyLjE5IDQxLjc3YTI0LjM5IDI0LjM5IDAgMCAwIDcuMTItMS4xbC45MSA0LjRhMjUgMjUgMCAwIDEtOC41NiAxLjQ4Yy03LjMxIDAtOS44NS0zLjM5LTkuODUtOVYzMS40YzAtNC45MiAyLjItOS4wOCA5LjY2LTkuMDhzOS4xMyA0LjM1IDkuMTMgOS4zN3Y1aC0xM3YxLjJjLjA1IDIuNzggMS4wNSAzLjg4IDQuNTkgMy44OHpNOTcuNjUgMzJoNy40MXYtMS4xOGMwLTIuMi0uNjctMy43My0zLjU0LTMuNzNzLTMuODcgMS41My0zLjg3IDMuNzN6bTI4LjU0LTQuMzNhNDUuNjUgNDUuNjUgMCAwIDAtNi4xOSAzLjM5djE1aC01LjgzVjIyLjc5aDQuOTJsLjM4IDIuNThhMjYuMDkgMjYuMDkgMCAwIDEgNi4xMi0zLjA2em0xNC4yNCAwYTQ1LjY1IDQ1LjY1IDAgMCAwLTYuMTcgMy4zOXYxNWgtNS44M1YyMi43OWg0LjkybC4zOCAyLjU4YTI2LjA5IDI2LjA5IDAgMCAxIDYuMTItMy4wNnptMTkuNTEgMTguNGgtNC43OGwtLjQzLTEuNThhMTIuNzMgMTIuNzMgMCAwIDEtNi45MyAyLjA2Yy00LjI1IDAtNi4wNy0yLjkyLTYuMDctNi45MyAwLTQuNzMgMi4wNi02LjU1IDYuNzktNi41NWg1LjU5di0yLjQ0YzAtMi41OC0uNzItMy40OS00LjQ1LTMuNDlhMzIuNTMgMzIuNTMgMCAwIDAtNi40NS43MmwtLjcyLTQuNDVhMzAuMzggMzAuMzggMCAwIDEgOC0xLjFjNy4zMSAwIDkuNDcgMi41OCA5LjQ3IDguNDF6bS01LjgzLTguOGgtNC4zYy0xLjkxIDAtMi40NC41My0yLjQ0IDIuMjlzLjUzIDIuMzQgMi4zNCAyLjM0YTkuMTggOS4xOCAwIDAgMCA0LjQtMS4yem0yMy43NS0xOS43OWExNy4xMSAxNy4xMSAwIDAgMC0zLjM1LS4zOGMtMi4yOSAwLTIuNjMgMS0yLjYzIDIuNzd2Mi45Mmg1LjkzbC0uMzMgNC42NGgtNS41OXYxOC42NGgtNS44M1YyNy40M2gtMy43M3YtNC42NGgzLjczdi0zLjI1YzAtNC44MyAyLjI1LTcuMjIgNy40MS03LjIyYTE4LjQ3IDE4LjQ3IDAgMCAxIDUgLjY3em0xMS4zOCAyOS4wN2MtOCAwLTEwLjEzLTQuNC0xMC4xMy05LjE4di01Ljg4YzAtNC43OCAyLjE1LTkuMTggMTAuMTMtOS4xOHMxMC4xMyA0LjQgMTAuMTMgOS4xOHY1Ljg4Yy4wMSA0Ljc4LTIuMTUgOS4xOC0xMC4xMyA5LjE4em0wLTE5LjI3Yy0zLjExIDAtNC4zIDEuMzktNC4zIDR2Ni4yNmMwIDIuNjMgMS4yIDQgNC4zIDRzNC4zLTEuMzkgNC4zLTRWMzEuM2MwLTIuNjMtMS4xOS00LjAyLTQuMy00LjAyem0yNS4xNC4zOWE0NS42NSA0NS42NSAwIDAgMC02LjE3IDMuMzl2MTVoLTUuODNWMjIuNzloNC45MmwuMzggMi41OGEyNi4wOCAyNi4wOCAwIDAgMSA2LjEyLTMuMDZ6bTE2LjAyIDE4LjRWMjkuODJjMC0xLjI0LS41My0xLjg2LTEuODYtMS44NmExNi4wOCAxNi4wOCAwIDAgMC02LjA3IDJ2MTYuMTFoLTUuODNWMjIuNzloNC40NWwuNTcgMmEyMy4zMiAyMy4zMiAwIDAgMSA5LjM0LTIuNDggNC40MiA0LjQyIDAgMCAxIDQuNCAyLjQ5IDIyLjgzIDIyLjgzIDAgMCAxIDkuMzctMi40OWMzLjg3IDAgNS4yNiAyLjcyIDUuMjYgNi44OHYxNi44OGgtNS44M1YyOS44MmMwLTEuMjQtLjUzLTEuODYtMS44Ni0xLjg2YTE1LjQzIDE1LjQzIDAgMCAwLTYuMDcgMnYxNi4xMXoiIGZpbGw9IiMwMDAiIGNsYXNzPSJ0ZXh0Ii8+JiN4YTsgIDxwYXRoIGQ9Ik0zNi40IDIwLjJ2MTguOTNsMTYuNC05LjQ2VjEwLjcyTDM2LjQgMjAuMnoiIGZpbGw9IiM0MDQwQjIiIGNsYXNzPSJyZWN0LWRhcmsiLz4mI3hhOyAgPHBhdGggZD0iTTE4LjIgMTAuNzJsMTYuNCA5LjQ4djE4LjkzbC0xNi40LTkuNDdWMTAuNzJ6IiBmaWxsPSIjNUM0RUU1IiBjbGFzcz0icmVjdC1saWdodCIvPiYjeGE7ICA8cGF0aCBkPSJNMCAuMTV2MTguOTRsMTYuNCA5LjQ3VjkuNjJMMCAuMTV6bTE4LjIgNTAuNTNsMTYuNCA5LjQ3VjQxLjIxbC0xNi40LTkuNDd2MTguOTR6IiBmaWxsPSIjNUM0RUU1IiBjbGFzcz0icmVjdC1saWdodCIvPiYjeGE7PC9zdmc+;" parent="1" vertex="1">
          <mxGeometry x="684.5" y="730" width="166.67" height="40" as="geometry" />
        </mxCell>
        <mxCell id="_91d8vO8XhM3lLEn06yE-1" value="" style="shape=image;verticalLabelPosition=bottom;labelBackgroundColor=default;verticalAlign=top;aspect=fixed;imageAspect=0;image=data:image/svg+xml,PHN2ZyB4bWxucz0iaHR0cDovL3d3dy53My5vcmcvMjAwMC9zdmciIHdpZHRoPSIyNTAwIiB2aWV3Qm94PSIwIDAgMjgyLjcyIDY0IiBoZWlnaHQ9IjI1MDAiIGZpbGw9Im5vbmUiPjxwYXRoIGZpbGw9IiMwMDAiIGQ9Ik0xNDEuMDQgMTZjLTExLjA0IDAtMTkgNy4yLTE5IDE4czguOTYgMTggMjAgMThjNi42NyAwIDEyLjU1LTIuNjQgMTYuMTktNy4wOWwtNy42NS00LjQyYy0yLjAyIDIuMjEtNS4wOSAzLjUtOC41NCAzLjUtNC43OSAwLTguODYtMi41LTEwLjM3LTYuNWgyOC4wMmMuMjItMS4xMi4zNS0yLjI4LjM1LTMuNSAwLTEwLjc5LTcuOTYtMTcuOTktMTktMTcuOTl6bS05LjQ2IDE0LjVjMS4yNS0zLjk5IDQuNjctNi41IDkuNDUtNi41IDQuNzkgMCA4LjIxIDIuNTEgOS40NSA2LjV6TTI0OC43MiAxNmMtMTEuMDQgMC0xOSA3LjItMTkgMThzOC45NiAxOCAyMCAxOGM2LjY3IDAgMTIuNTUtMi42NCAxNi4xOS03LjA5bC03LjY1LTQuNDJjLTIuMDIgMi4yMS01LjA5IDMuNS04LjU0IDMuNS00Ljc5IDAtOC44Ni0yLjUtMTAuMzctNi41aDI4LjAyYy4yMi0xLjEyLjM1LTIuMjguMzUtMy41IDAtMTAuNzktNy45Ni0xNy45OS0xOS0xNy45OXptLTkuNDUgMTQuNWMxLjI1LTMuOTkgNC42Ny02LjUgOS40NS02LjUgNC43OSAwIDguMjEgMi41MSA5LjQ1IDYuNXpNMjAwLjI0IDM0YzAgNiAzLjkyIDEwIDEwIDEwIDQuMTIgMCA3LjIxLTEuODcgOC44LTQuOTJsNy42OCA0LjQzYy0zLjE4IDUuMy05LjE0IDguNDktMTYuNDggOC40OS0xMS4wNSAwLTE5LTcuMi0xOS0xOHM3Ljk2LTE4IDE5LTE4YzcuMzQgMCAxMy4yOSAzLjE5IDE2LjQ4IDguNDlsLTcuNjggNC40M2MtMS41OS0zLjA1LTQuNjgtNC45Mi04LjgtNC45Mi02LjA3IDAtMTAgNC0xMCAxMHptODIuNDgtMjl2NDZoLTlWNXpNMzYuOTUgMEw3My45IDY0SDB6bTkyLjM4IDVsLTI3LjcxIDQ4TDczLjkxIDVIODQuM2wxNy4zMiAzMCAxNy4zMi0zMHptNTguOTEgMTJ2OS42OWMtMS0uMjktMi4wNi0uNDktMy4yLS40OS01LjgxIDAtMTAgNC0xMCAxMFY1MWgtOVYxN2g5djkuMmMwLTUuMDggNS45MS05LjIgMTMuMi05LjJ6Ii8+PC9zdmc+;" parent="1" vertex="1">
          <mxGeometry x="382.5" y="80" width="130" height="130" as="geometry" />
        </mxCell>
        <mxCell id="_91d8vO8XhM3lLEn06yE-5" value="" style="outlineConnect=0;dashed=0;verticalLabelPosition=bottom;verticalAlign=top;align=center;html=1;shape=mxgraph.aws3.lambda_function;fillColor=#F58534;gradientColor=none;" parent="1" vertex="1">
          <mxGeometry x="203.25" y="830" width="48.5" height="50" as="geometry" />
        </mxCell>
        <mxCell id="_91d8vO8XhM3lLEn06yE-6" value="&lt;div&gt;&lt;span style=&quot;background-color: initial;&quot;&gt;過去議論詳細用&lt;/span&gt;&lt;/div&gt;&lt;div&gt;&lt;span style=&quot;background-color: initial;&quot;&gt;Lambda&lt;/span&gt;&lt;br&gt;&lt;/div&gt;" style="text;html=1;align=center;verticalAlign=middle;whiteSpace=wrap;rounded=0;" parent="1" vertex="1">
          <mxGeometry x="184" y="880" width="87" height="30" as="geometry" />
        </mxCell>
        <mxCell id="_91d8vO8XhM3lLEn06yE-7" value="" style="outlineConnect=0;dashed=0;verticalLabelPosition=bottom;verticalAlign=top;align=center;html=1;shape=mxgraph.aws3.lambda_function;fillColor=#F58534;gradientColor=none;" parent="1" vertex="1">
          <mxGeometry x="108.25" y="830" width="48.5" height="50" as="geometry" />
        </mxCell>
        <mxCell id="_91d8vO8XhM3lLEn06yE-8" value="&lt;div&gt;&lt;span style=&quot;background-color: initial;&quot;&gt;過去議論一覧用&lt;/span&gt;&lt;/div&gt;&lt;div&gt;&lt;span style=&quot;background-color: initial;&quot;&gt;Lambda&lt;/span&gt;&lt;br&gt;&lt;/div&gt;" style="text;html=1;align=center;verticalAlign=middle;whiteSpace=wrap;rounded=0;" parent="1" vertex="1">
          <mxGeometry x="89" y="880" width="87" height="30" as="geometry" />
        </mxCell>
        <mxCell id="_91d8vO8XhM3lLEn06yE-9" value="" style="endArrow=classic;html=1;rounded=0;exitX=0.471;exitY=-0.023;exitDx=0;exitDy=0;exitPerimeter=0;entryX=0.5;entryY=0;entryDx=0;entryDy=0;entryPerimeter=0;" parent="1" source="vvA__PM_Cr4niP8rY80Y-36" target="_91d8vO8XhM3lLEn06yE-5" edge="1">
          <mxGeometry width="50" height="50" relative="1" as="geometry">
            <mxPoint x="199.5" y="830" as="sourcePoint" />
            <mxPoint x="249.5" y="780" as="targetPoint" />
          </mxGeometry>
        </mxCell>
        <mxCell id="_91d8vO8XhM3lLEn06yE-10" value="" style="endArrow=classic;html=1;rounded=0;exitX=0.481;exitY=-0.125;exitDx=0;exitDy=0;exitPerimeter=0;entryX=0.5;entryY=0;entryDx=0;entryDy=0;entryPerimeter=0;" parent="1" source="vvA__PM_Cr4niP8rY80Y-36" target="_91d8vO8XhM3lLEn06yE-7" edge="1">
          <mxGeometry width="50" height="50" relative="1" as="geometry">
            <mxPoint x="250" y="739" as="sourcePoint" />
            <mxPoint x="165" y="820" as="targetPoint" />
          </mxGeometry>
        </mxCell>
        <mxCell id="_91d8vO8XhM3lLEn06yE-11" value="" style="endArrow=classic;html=1;rounded=0;entryX=0.5;entryY=0;entryDx=0;entryDy=0;entryPerimeter=0;exitX=0.5;exitY=1;exitDx=0;exitDy=0;" parent="1" source="_91d8vO8XhM3lLEn06yE-6" target="vvA__PM_Cr4niP8rY80Y-32" edge="1">
          <mxGeometry width="50" height="50" relative="1" as="geometry">
            <mxPoint x="151" y="1020" as="sourcePoint" />
            <mxPoint x="310" y="1070" as="targetPoint" />
          </mxGeometry>
        </mxCell>
        <mxCell id="_91d8vO8XhM3lLEn06yE-12" value="" style="endArrow=classic;html=1;rounded=0;entryX=0.5;entryY=0;entryDx=0;entryDy=0;entryPerimeter=0;exitX=0.5;exitY=1;exitDx=0;exitDy=0;" parent="1" source="_91d8vO8XhM3lLEn06yE-8" target="vvA__PM_Cr4niP8rY80Y-32" edge="1">
          <mxGeometry width="50" height="50" relative="1" as="geometry">
            <mxPoint x="165" y="922.5" as="sourcePoint" />
            <mxPoint x="253" y="1087.5" as="targetPoint" />
          </mxGeometry>
        </mxCell>
        <mxCell id="_91d8vO8XhM3lLEn06yE-13" value="" style="endArrow=classic;html=1;rounded=0;exitX=1;exitY=0.5;exitDx=0;exitDy=0;exitPerimeter=0;entryX=0;entryY=0.5;entryDx=0;entryDy=0;entryPerimeter=0;" parent="1" source="vvA__PM_Cr4niP8rY80Y-65" target="vvA__PM_Cr4niP8rY80Y-40" edge="1">
          <mxGeometry width="50" height="50" relative="1" as="geometry">
            <mxPoint x="430" y="850" as="sourcePoint" />
            <mxPoint x="480" y="800" as="targetPoint" />
          </mxGeometry>
        </mxCell>
        <mxCell id="YaoEWJ50oZOcEF7Yv75L-1" value="" style="outlineConnect=0;dashed=0;verticalLabelPosition=bottom;verticalAlign=top;align=center;html=1;shape=mxgraph.aws3.lambda_function;fillColor=#F58534;gradientColor=none;" vertex="1" parent="1">
          <mxGeometry x="377" y="830" width="48.5" height="50" as="geometry" />
        </mxCell>
        <mxCell id="YaoEWJ50oZOcEF7Yv75L-2" value="&lt;div&gt;&lt;span style=&quot;background-color: initial;&quot;&gt;勝者登録用&lt;/span&gt;&lt;/div&gt;&lt;div&gt;&lt;span style=&quot;background-color: initial;&quot;&gt;Lambda&lt;/span&gt;&lt;br&gt;&lt;/div&gt;" style="text;html=1;align=center;verticalAlign=middle;whiteSpace=wrap;rounded=0;" vertex="1" parent="1">
          <mxGeometry x="355.75" y="880" width="87" height="30" as="geometry" />
        </mxCell>
        <mxCell id="YaoEWJ50oZOcEF7Yv75L-3" value="" style="endArrow=classic;html=1;rounded=0;exitX=0.5;exitY=0;exitDx=0;exitDy=0;entryX=0.5;entryY=0;entryDx=0;entryDy=0;entryPerimeter=0;" edge="1" parent="1" source="vvA__PM_Cr4niP8rY80Y-36" target="YaoEWJ50oZOcEF7Yv75L-1">
          <mxGeometry width="50" height="50" relative="1" as="geometry">
            <mxPoint x="300" y="900" as="sourcePoint" />
            <mxPoint x="350" y="850" as="targetPoint" />
          </mxGeometry>
        </mxCell>
        <mxCell id="YaoEWJ50oZOcEF7Yv75L-4" value="" style="endArrow=classic;html=1;rounded=0;exitX=0.5;exitY=1;exitDx=0;exitDy=0;entryX=0.5;entryY=0;entryDx=0;entryDy=0;entryPerimeter=0;" edge="1" parent="1" source="YaoEWJ50oZOcEF7Yv75L-2" target="vvA__PM_Cr4niP8rY80Y-32">
          <mxGeometry width="50" height="50" relative="1" as="geometry">
            <mxPoint x="300" y="900" as="sourcePoint" />
            <mxPoint x="350" y="850" as="targetPoint" />
          </mxGeometry>
        </mxCell>
        <mxCell id="YaoEWJ50oZOcEF7Yv75L-5" value="" style="shape=image;verticalLabelPosition=bottom;labelBackgroundColor=default;verticalAlign=top;aspect=fixed;imageAspect=0;image=data:image/svg+xml,PHN2ZyB4bWxuczp4bGluaz0iaHR0cDovL3d3dy53My5vcmcvMTk5OS94bGluayIgeG1sbnM9Imh0dHA6Ly93d3cudzMub3JnLzIwMDAvc3ZnIiB4bWw6c3BhY2U9InByZXNlcnZlIiBzdHlsZT0iZW5hYmxlLWJhY2tncm91bmQ6bmV3IDAgMCAyNTYgMjU2OyIgdmlld0JveD0iMCAwIDI1NiAyNTYiIHk9IjBweCIgeD0iMHB4IiBpZD0iTGF5ZXJfMSIgdmVyc2lvbj0iMS4xIj4mI3hhOzxzdHlsZSB0eXBlPSJ0ZXh0L2NzcyI+JiN4YTsJJiN4YTsJCS5zdDB7Y2xpcC1wYXRoOnVybCgjU1ZHSURfMDAwMDAxMzM1Mjc4NzUyNjI0ODY4MjE0MDAwMDAwMDExNTMxODAxNTUzNTg2MTEwNzVfKTtmaWxsOnVybCgjU1ZHSURfMDAwMDAxMDMyNjczMzUxNzkwNDIzODY0MTAwMDAwMDUwNzgxNjIzMTkyODA5MjQ4MzhfKTt9JiN4YTsJLnN0MXtjbGlwLXBhdGg6dXJsKCNTVkdJRF8wMDAwMDEzMzUyNzg3NTI2MjQ4NjgyMTQwMDAwMDAwMTE1MzE4MDE1NTM1ODYxMTA3NV8pO30mI3hhOwkuc3Qye2NsaXAtcGF0aDp1cmwoI1NWR0lEXzAwMDAwMDAyMzgxOTg1MjUyNDQ5MTUwNDEwMDAwMDAzMzY4ODIwMDAyNTEwNzUwODUxXyk7ZmlsbDpub25lO30mI3hhOwkuc3Qze2ZpbGw6I0ZGRkZGRjt9JiN4YTs8L3N0eWxlPiYjeGE7PGc+JiN4YTsJPGRlZnM+JiN4YTsJCTxwYXRoIGQ9Ik04NS4zMywwaDg1LjMzQzIxNy43OSwwLDI1NiwzOC4yMSwyNTYsODUuMzN2ODUuMzNjMCw0Ny4xMy0zOC4yMSw4NS4zMy04NS4zMyw4NS4zM0g4NS4zMyYjMTA7JiM5OyYjOTsmIzk7QzM4LjIxLDI1NiwwLDIxNy43OSwwLDE3MC42N1Y4NS4zM0MwLDM4LjIxLDM4LjIxLDAsODUuMzMsMHoiIGlkPSJTVkdJRF8xXyIvPiYjeGE7CTwvZGVmcz4mI3hhOwk8Y2xpcFBhdGggaWQ9IlNWR0lEXzAwMDAwMTU1MTA4MTk4MzAxMjc0Mzg4NzUwMDAwMDEzNDQ2NTYwMTQxNzQ5ODUxNTMzXyI+JiN4YTsJCTx1c2Ugc3R5bGU9Im92ZXJmbG93OnZpc2libGU7IiB4bGluazpocmVmPSIjU1ZHSURfMV8iLz4mI3hhOwk8L2NsaXBQYXRoPiYjeGE7CSYjeGE7CQk8bGluZWFyR3JhZGllbnQgZ3JhZGllbnRUcmFuc2Zvcm09Im1hdHJpeCgxIDAgMCAtMSAwIDI1OCkiIHkyPSIyNzEuNjk4NCIgeDI9IjIzNS4wMTAxIiB5MT0iLTEwLjQyNjEiIHgxPSIyMS45NDMyIiBncmFkaWVudFVuaXRzPSJ1c2VyU3BhY2VPblVzZSIgaWQ9IlNWR0lEXzAwMDAwMTA2ODQwMDcyNzk3NDU5MTMxMzAwMDAwMDAwMTI4MjIwMTUwNTA5OTQ1NTEyXyI+JiN4YTsJCTxzdG9wIHN0eWxlPSJzdG9wLWNvbG9yOiNGRjQ2RDciIG9mZnNldD0iMC4wMzE5Ii8+JiN4YTsJCTxzdG9wIHN0eWxlPSJzdG9wLWNvbG9yOiNFNjU4RkUiIG9mZnNldD0iMC4xNTY1Ii8+JiN4YTsJCTxzdG9wIHN0eWxlPSJzdG9wLWNvbG9yOiNDMDQwRkYiIG9mZnNldD0iMC4zMDEyIi8+JiN4YTsJCTxzdG9wIHN0eWxlPSJzdG9wLWNvbG9yOiNBMTQzRUYiIG9mZnNldD0iMC41NDE0Ii8+JiN4YTsJCTxzdG9wIHN0eWxlPSJzdG9wLWNvbG9yOiM2MzQ0Q0QiIG9mZnNldD0iMC43NTUiLz4mI3hhOwkJPHN0b3Agc3R5bGU9InN0b3AtY29sb3I6IzQ3NDdCQiIgb2Zmc2V0PSIwLjg1MDUiLz4mI3hhOwkJPHN0b3Agc3R5bGU9InN0b3AtY29sb3I6IzQ3ODZDOSIgb2Zmc2V0PSIwLjk4NCIvPiYjeGE7CTwvbGluZWFyR3JhZGllbnQ+JiN4YTsJJiN4YTsJCTxyZWN0IGhlaWdodD0iMjU1Ljk0IiB3aWR0aD0iMjU1Ljk0IiBzdHlsZT0iY2xpcC1wYXRoOnVybCgjU1ZHSURfMDAwMDAxNTUxMDgxOTgzMDEyNzQzODg3NTAwMDAwMTM0NDY1NjAxNDE3NDk4NTE1MzNfKTtmaWxsOnVybCgjU1ZHSURfMDAwMDAxMDY4NDAwNzI3OTc0NTkxMzEzMDAwMDAwMDAxMjgyMjAxNTA1MDk5NDU1MTJfKTsiIHk9IjAuMDMiIHg9IjAuMDMiLz4mI3hhOwk8ZyBzdHlsZT0iY2xpcC1wYXRoOnVybCgjU1ZHSURfMDAwMDAxNTUxMDgxOTgzMDEyNzQzODg3NTAwMDAwMTM0NDY1NjAxNDE3NDk4NTE1MzNfKTsiPiYjeGE7CQk8Zz4mI3hhOwkJCTxkZWZzPiYjeGE7CQkJCTxwYXRoIGQ9Ik04NS4zMywwaDg1LjMzQzIxNy43OSwwLDI1NiwzOC4yMSwyNTYsODUuMzN2ODUuMzMmIzEwOyYjOTsmIzk7JiM5OyYjOTsmIzk7YzAsNDcuMTMtMzguMjEsODUuMzMtODUuMzMsODUuMzNIODUuMzNDMzguMjEsMjU2LDAsMjE3Ljc5LDAsMTcwLjY3Vjg1LjMzQzAsMzguMjEsMzguMjEsMCw4NS4zMywweiIgaWQ9IlNWR0lEXzAwMDAwMTQ4NjI5NDg0MTY1MjAwOTQ4MTEwMDAwMDA0OTgyMDQ3MzcwODkyODI5ODI3XyIvPiYjeGE7CQkJPC9kZWZzPiYjeGE7CQkJPGNsaXBQYXRoIGlkPSJTVkdJRF8wMDAwMDExMDQ2MTYzMTc5OTc4NDMyNDQzMDAwMDAwNjI2Nzk4MDk0MzAxNjI0OTk4Nl8iPiYjeGE7CQkJCTx1c2Ugc3R5bGU9Im92ZXJmbG93OnZpc2libGU7IiB4bGluazpocmVmPSIjU1ZHSURfMDAwMDAxNDg2Mjk0ODQxNjUyMDA5NDgxMTAwMDAwMDQ5ODIwNDczNzA4OTI4Mjk4MjdfIi8+JiN4YTsJCQk8L2NsaXBQYXRoPiYjeGE7CQkJPHJlY3QgaGVpZ2h0PSIyNTYiIHdpZHRoPSIyNTYiIHN0eWxlPSJjbGlwLXBhdGg6dXJsKCNTVkdJRF8wMDAwMDExMDQ2MTYzMTc5OTc4NDMyNDQzMDAwMDAwNjI2Nzk4MDk0MzAxNjI0OTk4Nl8pO2ZpbGw6bm9uZTsiLz4mI3hhOwkJPC9nPiYjeGE7CTwvZz4mI3hhOzwvZz4mI3hhOzxwYXRoIGQ9Ik0yMjQuMjMsMTQwLjg5VjEwNy42YzAtMC4wMSwwLTAuMDIsMC0wLjAyYzAtNy4xMi01Ljc1LTEyLjktMTIuODYtMTIuOTVsMCwwYy0wLjAzLDAtMC4wNiwwLTAuMDksMGgtMC4wMWwwLDAmIzEwOyYjOTtjLTQtMC4wNy05LjU4LTAuOTktMTMuNTUtNC45NmMtMy41Mi0zLjUyLTQuNjgtOS40LTQuOTgtMTQuM2wtMC4wMSwwLjAyYy0wLjAxLTAuMTEtMC4wMS0wLjIzLTAuMDItMC4zNSYjMTA7JiM5O2MtMC4wMS0wLjA4LDAtMC4xNi0wLjAxLTAuMjRjLTAuNjYtNi41My02LjE4LTExLjYzLTEyLjg5LTExLjYzSDc2LjJjLTAuNDQsMC0wLjg4LDAuMDItMS4zMSwwLjA3Yy0wLjE1LDAuMDEtMC4yOSwwLjA0LTAuNDQsMC4wNiYjMTA7JiM5O2MtMC4yNywwLjA0LTAuNTQsMC4wNy0wLjgxLDAuMTJjLTAuMTksMC4wNC0wLjM3LDAuMDktMC41NiwwLjE0Yy0wLjIyLDAuMDYtMC40NSwwLjEtMC42NywwLjE3Yy0wLjE5LDAuMDYtMC4zNywwLjEzLTAuNTUsMC4xOSYjMTA7JiM5O2MtMC4yMSwwLjA4LTAuNDMsMC4xNS0wLjY0LDAuMjNjLTAuMTcsMC4wNy0wLjMzLDAuMTYtMC41MSwwLjI0Yy0wLjIxLDAuMS0wLjQzLDAuMi0wLjY0LDAuMzFjLTAuMTYsMC4wOC0wLjMxLDAuMTgtMC40NywwLjI3JiMxMDsmIzk7Yy0wLjIxLDAuMTItMC40MiwwLjI0LTAuNjIsMC4zOGMtMC4xNywwLjExLTAuMzMsMC4yNC0wLjQ5LDAuMzZjLTAuMTcsMC4xMy0wLjM1LDAuMjUtMC41MywwLjM5Yy0wLjI4LDAuMjMtMC41NCwwLjQ3LTAuOCwwLjcyJiMxMDsmIzk7Yy0wLjA1LDAuMDUtMC4xLDAuMDktMC4xNSwwLjE0Yy0wLjA0LDAuMDQtMC4wNywwLjA4LTAuMTEsMC4xMmMtMC4yNiwwLjI2LTAuNTEsMC41My0wLjc0LDAuODJjLTAuMTQsMC4xNi0wLjI1LDAuMzMtMC4zOCwwLjUmIzEwOyYjOTtzLTAuMjYsMC4zNC0wLjM4LDAuNTFjLTAuMTMsMC4xOS0wLjI0LDAuMzktMC4zNiwwLjU5Yy0wLjEsMC4xNy0wLjIsMC4zMy0wLjI5LDAuNWMtMC4xMSwwLjItMC4yLDAuNC0wLjI5LDAuNjEmIzEwOyYjOTtjLTAuMDgsMC4xOC0wLjE4LDAuMzYtMC4yNSwwLjU0Yy0wLjA4LDAuMi0wLjE1LDAuNC0wLjIyLDAuNnMtMC4xNSwwLjM5LTAuMjEsMC42Yy0wLjA2LDAuMi0wLjEsMC40LTAuMTUsMC42JiMxMDsmIzk7Yy0wLjA1LDAuMjEtMC4xMSwwLjQyLTAuMTUsMC42M2MtMC4wNCwwLjIzLTAuMDcsMC40Ni0wLjExLDAuN2MtMC4wMywwLjE5LTAuMDYsMC4zNy0wLjA4LDAuNTZjLTAuMDIsMC4xOC0wLjAyLDAuMzYtMC4wMywwLjU0JiMxMDsmIzk7bC0wLjAxLTAuMDFjLTAuMyw0LjktMS40NiwxMC43OC00Ljk4LDE0LjNjLTMuOTcsMy45Ny05LjU0LDQuODktMTMuNTUsNC45NmwwLDBoLTAuMDFjLTAuMDMsMC0wLjA2LDAtMC4wOSwwbDAsMCYjMTA7JiM5O2MtMC40LDAtMC43OSwwLjAyLTEuMTgsMC4wNmMtMC4yLDAuMDItMC4zOSwwLjA1LTAuNTgsMC4wOGMtMC4yMiwwLjAzLTAuNDUsMC4wNi0wLjY3LDAuMWMtMC4yMiwwLjA0LTAuNDQsMC4xLTAuNjYsMC4xNiYjMTA7JiM5O2MtMC4xOSwwLjA1LTAuMzgsMC4wOS0wLjU3LDAuMTVjLTAuMjIsMC4wNy0wLjQyLDAuMTUtMC42MywwLjIyYy0wLjE5LDAuMDctMC4zOCwwLjEzLTAuNTcsMC4yMWMtMC4yLDAuMDgtMC4zOCwwLjE4LTAuNTgsMC4yNyYjMTA7JiM5O2MtMC4xOSwwLjA5LTAuMzgsMC4xOC0wLjU3LDAuMjhzLTAuMzYsMC4yMS0wLjU0LDAuMzJzLTAuMzcsMC4yMS0wLjU1LDAuMzNjLTAuMiwwLjE0LTAuMzksMC4yOC0wLjU4LDAuNDMmIzEwOyYjOTtjLTAuMTUsMC4xMS0wLjI5LDAuMjEtMC40MywwLjMyYy0wLjY2LDAuNTQtMS4yNywxLjE1LTEuODEsMS44MWMtMC4xMiwwLjE0LTAuMjIsMC4yOS0wLjMzLDAuNDNjLTAuMTUsMC4xOS0wLjMsMC4zOC0wLjQzLDAuNTgmIzEwOyYjOTtjLTAuMTIsMC4xOC0wLjIyLDAuMzYtMC4zMywwLjU1Yy0wLjExLDAuMTgtMC4yMiwwLjM1LTAuMzIsMC41NHMtMC4xOSwwLjM4LTAuMjgsMC41N3MtMC4xOCwwLjM4LTAuMjcsMC41OCYjMTA7JiM5O2MtMC4wOCwwLjE5LTAuMTQsMC4zOC0wLjIxLDAuNTdjLTAuMDgsMC4yMS0wLjE1LDAuNDItMC4yMiwwLjYzYy0wLjA2LDAuMTktMC4xLDAuMzgtMC4xNSwwLjU3Yy0wLjA2LDAuMjItMC4xMSwwLjQzLTAuMTYsMC42NiYjMTA7JiM5O2MtMC4wNSwwLjIyLTAuMDcsMC40NS0wLjEsMC42N2MtMC4wMywwLjE5LTAuMDcsMC4zOC0wLjA4LDAuNThjLTAuMDQsMC40Mi0wLjA3LDAuODUtMC4wNywxLjI4bDAsMHYzMy4yOWMwLDAuMDEsMCwwLjAxLDAsMC4wMiYjMTA7JiM5O2MwLDcuMTIsNS43NSwxMi45LDEyLjg2LDEyLjk1bDAsMGMwLjAzLDAsMC4wNiwwLDAuMDksMGwwLDBsMCwwYzQsMC4wNyw5LjU4LDAuOTksMTMuNTUsNC45NmMzLjQ1LDMuNDUsNC42Myw5LjE3LDQuOTYsMTR2MzMuMTMmIzEwOyYjOTtjMCw0LjIsNS4yOSw2LjA1LDcuOTEsMi43OGwxOC43Mi0yMy40aDg5Ljk0YzAuMDEsMCwwLjAxLDAsMC4wMiwwYzYuOTEsMCwxMi41My01LjQxLDEyLjkyLTEyLjIybDAuMDEsMC4wMiYjMTA7JiM5O2MwLjI5LTQuOSwxLjQ2LTEwLjc4LDQuOTgtMTQuM2MzLjk3LTMuOTcsOS41NC00Ljg5LDEzLjU1LTQuOTZsMCwwaDAuMDFjMC4wMywwLDAuMDYsMCwwLjA5LDBsMCwwYzAuMzUsMCwwLjctMC4wMiwxLjA1LTAuMDUmIzEwOyYjOTtjMC4wNiwwLDAuMTIsMCwwLjE4LTAuMDFDMjE5LjEzLDE1My4xMiwyMjQuMjMsMTQ3LjYsMjI0LjIzLDE0MC44OXogTTE5My4zNywxNTQuNDRjLTQuMDMsNC4wMy05Ljc1LDQuOTEtMTMuNzgsNC45NmwwLDBINzYuNDFsMCwwJiMxMDsmIzk7Yy00LjAyLTAuMDQtOS43NS0wLjkyLTEzLjc4LTQuOTZjLTMuMjgtMy4yOC00LjUzLTguOTYtNC45Ni0xMy45OXYtMzIuNDJjMC40Mi01LjAzLDEuNjgtMTAuNzIsNC45Ni0xNCYjMTA7JiM5O2M0LjAzLTQuMDMsOS43NS00LjkxLDEzLjc4LTQuOTVsMCwwSDE3OS42aC0wLjAxYzQuMDIsMC4wNCw5Ljc1LDAuOTIsMTMuNzgsNC45NmMzLjI4LDMuMjgsNC41Myw4Ljk2LDQuOTYsMTMuOTl2MzIuNDImIzEwOyYjOTtDMTk3LjksMTQ1LjQ3LDE5Ni42NSwxNTEuMTYsMTkzLjM3LDE1NC40NHoiIGNsYXNzPSJzdDMiLz4mI3hhOzxwYXRoIGQ9Ik05OS4zMiwxMDQuNjFjLTcuMTUsMC0xMi45Niw1LjgtMTIuOTYsMTIuOTV2MTIuOTZjMCw3LjE1LDUuOCwxMi45NiwxMi45NiwxMi45NmM3LjE1LDAsMTIuOTUtNS44LDEyLjk1LTEyLjk2JiMxMDsmIzk7di0xMi45NkMxMTIuMjcsMTEwLjQxLDEwNi40NywxMDQuNjEsOTkuMzIsMTA0LjYxeiIgY2xhc3M9InN0MyIvPiYjeGE7PHBhdGggZD0iTTE1Ni42OCwxMDQuNjFjLTcuMTUsMC0xMi45Niw1LjgtMTIuOTYsMTIuOTV2MTIuOTZjMCw3LjE1LDUuOCwxMi45NiwxMi45NiwxMi45NnMxMi45Ni01LjgsMTIuOTYtMTIuOTYmIzEwOyYjOTt2LTEyLjk2QzE2OS42NCwxMTAuNDEsMTYzLjg0LDEwNC42MSwxNTYuNjgsMTA0LjYxeiIgY2xhc3M9InN0MyIvPiYjeGE7PC9zdmc+;" vertex="1" parent="1">
          <mxGeometry x="624" y="610.14" width="96" height="96" as="geometry" />
        </mxCell>
      </root>
    </mxGraphModel>
  </diagram>
</mxfile>
